<svg id="Capa_1" data-name="Capa 1" xmlns="http://www.w3.org/2000/svg" xmlns:xlink="http://www.w3.org/1999/xlink" viewBox="0 0 138.24 128.16"><defs><radialGradient id="radial-gradient" cx="69.66" cy="40.12" r="29.57" gradientUnits="userSpaceOnUse"><stop offset="0.5" stop-color="#828381"/><stop offset="0.57" stop-color="#888987"/><stop offset="0.68" stop-color="#9b9c9a"/><stop offset="0.79" stop-color="#b4b5b3"/><stop offset="0.97" stop-color="#cdcdcd"/></radialGradient><radialGradient id="radial-gradient-2" cx="69.62" cy="39.83" r="30.43" xlink:href="#radial-gradient"/><linearGradient id="linear-gradient" x1="74.12" y1="28.58" x2="78.56" y2="24.03" gradientTransform="translate(41.27 -45.53) rotate(45)" gradientUnits="userSpaceOnUse"><stop offset="0" stop-color="#50514f" stop-opacity="0.6"/><stop offset="0.23" stop-color="#727371" stop-opacity="0.73"/><stop offset="0.46" stop-color="#8e8f8d" stop-opacity="0.85"/><stop offset="0.67" stop-color="#a3a4a2" stop-opacity="0.93"/><stop offset="0.86" stop-color="#b0b1af" stop-opacity="0.98"/><stop offset="1" stop-color="#b4b5b3"/></linearGradient><linearGradient id="linear-gradient-2" x1="75.13" y1="27.69" x2="83.67" y2="18.91" gradientTransform="translate(39.18 -50.59) rotate(45)" gradientUnits="userSpaceOnUse"><stop offset="0" stop-color="#fff" stop-opacity="0"/><stop offset="0.06" stop-color="#f3f4f3" stop-opacity="0.15"/><stop offset="0.16" stop-color="#e3e3e2" stop-opacity="0.38"/><stop offset="0.27" stop-color="#d4d5d4" stop-opacity="0.57"/><stop offset="0.38" stop-color="#c8c9c8" stop-opacity="0.73"/><stop offset="0.5" stop-color="#bfc0bf" stop-opacity="0.85"/><stop offset="0.63" stop-color="#b9bab8" stop-opacity="0.93"/><stop offset="0.78" stop-color="#b5b6b4" stop-opacity="0.98"/><stop offset="1" stop-color="#b4b5b3"/></linearGradient><linearGradient id="linear-gradient-3" x1="82.56" y1="20.18" x2="87.28" y2="15.34" gradientTransform="translate(37.09 -55.63) rotate(45)" gradientUnits="userSpaceOnUse"><stop offset="0" stop-color="#fff"/><stop offset="0.09" stop-color="#fff" stop-opacity="0.97"/><stop offset="0.22" stop-color="#fff" stop-opacity="0.88"/><stop offset="0.38" stop-color="#fff" stop-opacity="0.74"/><stop offset="0.57" stop-color="#fff" stop-opacity="0.54"/><stop offset="0.78" stop-color="#fff" stop-opacity="0.29"/><stop offset="1" stop-color="#fff" stop-opacity="0"/></linearGradient><linearGradient id="linear-gradient-4" x1="78.59" y1="26.58" x2="92.93" y2="26.58" gradientTransform="translate(43.87 -52.83) rotate(44.97)" gradientUnits="userSpaceOnUse"><stop offset="0" stop-color="#828381"/><stop offset="0.1" stop-color="#888987"/><stop offset="0.24" stop-color="#9b9c9a"/><stop offset="0.38" stop-color="#b4b5b3"/><stop offset="0.72" stop-color="#e6e6e6"/><stop offset="0.77" stop-color="#aaa"/><stop offset="1" stop-color="#828381"/></linearGradient><linearGradient id="linear-gradient-5" x1="79.46" y1="27.45" x2="93.8" y2="27.45" gradientTransform="translate(44.74 -53.19) rotate(44.97)" xlink:href="#linear-gradient-4"/><linearGradient id="linear-gradient-6" x1="80.33" y1="28.32" x2="94.67" y2="28.32" gradientTransform="translate(45.61 -53.56) rotate(44.97)" xlink:href="#linear-gradient-4"/><linearGradient id="linear-gradient-7" x1="81.2" y1="29.19" x2="95.54" y2="29.19" gradientTransform="translate(46.48 -53.92) rotate(44.97)" xlink:href="#linear-gradient-4"/><linearGradient id="linear-gradient-8" x1="82.07" y1="30.06" x2="96.42" y2="30.06" gradientTransform="translate(47.35 -54.28) rotate(44.97)" xlink:href="#linear-gradient-4"/><linearGradient id="linear-gradient-9" x1="82.95" y1="30.94" x2="97.29" y2="30.94" gradientTransform="translate(48.23 -54.64) rotate(44.97)" xlink:href="#linear-gradient-4"/></defs><path d="M12.84,107.27a1.89,1.89,0,0,1-1.05-.3,2.1,2.1,0,0,1-.73-.85,2.82,2.82,0,0,1-.25-1.21v-2.09a2.65,2.65,0,0,1,.26-1.23,2.05,2.05,0,0,1,.73-.84,2,2,0,0,1,1.08-.3h1a2,2,0,0,1,1,.25,1.69,1.69,0,0,1,.71.69,2,2,0,0,1,.26,1,.25.25,0,0,1-.06.16.24.24,0,0,1-.16.07h-.19a.24.24,0,0,1-.16-.07.21.21,0,0,1-.07-.16,1.38,1.38,0,0,0-.38-1,1.36,1.36,0,0,0-1-.35h-1a1.31,1.31,0,0,0-.74.21,1.36,1.36,0,0,0-.5.6,2.2,2.2,0,0,0-.18.93v2.09a2.31,2.31,0,0,0,.17.91,1.49,1.49,0,0,0,.51.62,1.16,1.16,0,0,0,.7.21h1a1.32,1.32,0,0,0,1-.4,1.59,1.59,0,0,0,.4-1.08.19.19,0,0,1,.07-.16.18.18,0,0,1,.15-.07h.2a.2.2,0,0,1,.16.07.21.21,0,0,1,.06.16,2.31,2.31,0,0,1-.26,1.09,1.81,1.81,0,0,1-.71.74,2.12,2.12,0,0,1-1.06.27Z" fill="#fff"/><path d="M18.8,107.27a2.09,2.09,0,0,1-1.11-.29,2,2,0,0,1-.76-.82,2.71,2.71,0,0,1-.26-1.2v-2.2a2.62,2.62,0,0,1,.27-1.2,2,2,0,0,1,.75-.83,2.24,2.24,0,0,1,1.12-.28h.93a2.16,2.16,0,0,1,1.11.29,1.91,1.91,0,0,1,.76.83,2.57,2.57,0,0,1,.27,1.19V105a2.59,2.59,0,0,1-.27,1.2,1.89,1.89,0,0,1-.76.82,2.13,2.13,0,0,1-1.12.29Zm.93-.62a1.47,1.47,0,0,0,.78-.21,1.34,1.34,0,0,0,.52-.58,2.17,2.17,0,0,0,.19-.9v-2.2a2.11,2.11,0,0,0-.18-.89,1.34,1.34,0,0,0-.51-.59,1.5,1.5,0,0,0-.79-.2h-.93a1.44,1.44,0,0,0-.78.2,1.34,1.34,0,0,0-.52.58,2.27,2.27,0,0,0-.19.9V105a1.81,1.81,0,0,0,.41,1.23,1.34,1.34,0,0,0,1.07.46Z" fill="#fff"/><path d="M23,100.75a.19.19,0,0,1,.07-.16.2.2,0,0,1,.16-.07h.24a.17.17,0,0,1,.1,0l.05,0,0,0,3.5,5.35v-5.23a.22.22,0,0,1,.22-.23h.19a.22.22,0,0,1,.17.07.21.21,0,0,1,.06.16V107a.24.24,0,0,1-.06.17.25.25,0,0,1-.17.06h-.24a.29.29,0,0,1-.17-.07v0l-3.51-5.35V107a.24.24,0,0,1-.06.17.23.23,0,0,1-.16.06h-.18a.23.23,0,0,1-.16-.06A.21.21,0,0,1,23,107Z" fill="#fff"/><path d="M29.17,100.75a.22.22,0,0,1,.07-.16.21.21,0,0,1,.16-.07h3.79a.22.22,0,0,1,.17.07.21.21,0,0,1,.06.16v.17a.23.23,0,0,1-.06.16.22.22,0,0,1-.17.07H29.83v2.33h2.09a.24.24,0,0,1,.24.25.2.2,0,0,1,0,.09,1,1,0,0,1-.11.23.2.2,0,0,1-.15.06H29.83v2.47h3.36a.25.25,0,0,1,.17.06.23.23,0,0,1,.06.16V107a.24.24,0,0,1-.06.17.25.25,0,0,1-.17.06H29.66a.49.49,0,0,1-.36-.14.56.56,0,0,1-.13-.38Z" fill="#fff"/><path d="M34,106.83v0l2.1-3-2-2.89v0l0-.1v0a.26.26,0,0,1,.07-.17.29.29,0,0,1,.18-.07h.2a.27.27,0,0,1,.16.08h0l1.82,2.62,1.82-2.62h0a.27.27,0,0,1,.16-.08h.2a.24.24,0,0,1,.18.07.24.24,0,0,1,.06.17.31.31,0,0,1,0,.13v0l-2,2.89,2.06,3A.32.32,0,0,1,39,107a.12.12,0,0,1,0,.09.24.24,0,0,1-.2.09h-.2a.25.25,0,0,1-.16-.07l0,0-1.91-2.75L34.62,107a.5.5,0,0,1-.17.12.49.49,0,0,1-.2.06h0a.28.28,0,0,1-.18-.06A.24.24,0,0,1,34,107,.25.25,0,0,1,34,106.83Z" fill="#fff"/><path d="M40.21,107.2a.23.23,0,0,1-.16-.06A.21.21,0,0,1,40,107v-6.22a.19.19,0,0,1,.07-.16.2.2,0,0,1,.16-.07h.2a.2.2,0,0,1,.16.07.21.21,0,0,1,.06.16V107a.24.24,0,0,1-.06.17.23.23,0,0,1-.16.06Z" fill="#fff"/><path d="M44,107.27a2.09,2.09,0,0,1-1.11-.29,2,2,0,0,1-.76-.82,2.58,2.58,0,0,1-.26-1.2v-2.2a2.75,2.75,0,0,1,.26-1.2,2,2,0,0,1,.76-.83,2.22,2.22,0,0,1,1.12-.28H45a2.2,2.2,0,0,1,1.12.29,1.91,1.91,0,0,1,.76.83,2.57,2.57,0,0,1,.26,1.19V105a2.58,2.58,0,0,1-.26,1.2,1.89,1.89,0,0,1-.76.82,2.14,2.14,0,0,1-1.13.29Zm.92-.62a1.42,1.42,0,0,0,.78-.21,1.36,1.36,0,0,0,.53-.58,2.17,2.17,0,0,0,.19-.9v-2.2a2.11,2.11,0,0,0-.18-.89,1.3,1.3,0,0,0-.52-.59,1.48,1.48,0,0,0-.79-.2H44a1.42,1.42,0,0,0-.78.2,1.34,1.34,0,0,0-.52.58,2.11,2.11,0,0,0-.19.9V105a1.8,1.8,0,0,0,.4,1.23,1.36,1.36,0,0,0,1.08.46Z" fill="#fff"/><path d="M48.26,100.75a.22.22,0,0,1,.22-.23h.25a.12.12,0,0,1,.09,0l.06,0s0,0,0,0L52.4,106v-5.23a.22.22,0,0,1,.07-.16.21.21,0,0,1,.16-.07h.19a.24.24,0,0,1,.23.23V107a.21.21,0,0,1-.07.17.21.21,0,0,1-.16.06h-.24a.27.27,0,0,1-.17-.07l0,0-3.5-5.35V107a.24.24,0,0,1-.06.17.23.23,0,0,1-.16.06h-.19a.25.25,0,0,1-.16-.06.24.24,0,0,1-.06-.17Z" fill="#fff"/><path d="M54.39,100.75a.19.19,0,0,1,.07-.16.2.2,0,0,1,.16-.07h3.79a.24.24,0,0,1,.23.23v.17a.2.2,0,0,1-.07.16.19.19,0,0,1-.16.07H55v2.33h2.1a.26.26,0,0,1,.17.07.29.29,0,0,1,.07.18.2.2,0,0,1,0,.09.68.68,0,0,1-.12.23.18.18,0,0,1-.15.06H55v2.47h3.37a.21.21,0,0,1,.16.06.2.2,0,0,1,.07.16V107a.21.21,0,0,1-.07.17.21.21,0,0,1-.16.06H54.88a.49.49,0,0,1-.36-.14.52.52,0,0,1-.13-.38Z" fill="#fff"/><path d="M59.56,105.31a.2.2,0,0,1,.16-.07h.19a.2.2,0,0,1,.16.07.21.21,0,0,1,.06.16,1.28,1.28,0,0,0,.34.87,1.13,1.13,0,0,0,.86.31h1a1.39,1.39,0,0,0,.86-.24.76.76,0,0,0,.33-.64v-.65a.74.74,0,0,0-.24-.55,1.19,1.19,0,0,0-.66-.29L61,104a2,2,0,0,1-1.08-.52,1.35,1.35,0,0,1-.39-1v-.57a1.36,1.36,0,0,1,.5-1.08,2,2,0,0,1,1.29-.41h1a1.69,1.69,0,0,1,1.22.45,1.64,1.64,0,0,1,.49,1.19.23.23,0,0,1-.06.16.22.22,0,0,1-.17.07h-.19a.21.21,0,0,1-.16-.07.23.23,0,0,1-.06-.16,1,1,0,0,0-1.07-1h-1a1.3,1.3,0,0,0-.83.23.74.74,0,0,0-.3.63v.57a.77.77,0,0,0,.22.57,1.12,1.12,0,0,0,.65.29l1.6.27a2.13,2.13,0,0,1,1.11.52,1.29,1.29,0,0,1,.39,1v.65a1.38,1.38,0,0,1-.23.78,1.49,1.49,0,0,1-.65.53,2.25,2.25,0,0,1-1,.19h-1a1.84,1.84,0,0,1-1.33-.48,1.8,1.8,0,0,1-.51-1.32A.19.19,0,0,1,59.56,105.31Z" fill="#fff"/><path d="M67,100.69c0-.11.15-.17.44-.17a.24.24,0,0,1,.2.11l2,3.36,2-3.36a.24.24,0,0,1,.2-.11h.18a.29.29,0,0,1,.18.07.26.26,0,0,1,.07.17.38.38,0,0,1,0,.13l-2.24,3.77V107a.21.21,0,0,1-.07.17.21.21,0,0,1-.16.06h-.2a.25.25,0,0,1-.16-.06.24.24,0,0,1-.07-.17v-2.31L67,100.76A.14.14,0,0,1,67,100.69Z" fill="#fff"/><path d="M75.23,100.75a.22.22,0,0,1,.07-.16.21.21,0,0,1,.16-.07h.25a.24.24,0,0,1,.2.11l2.23,4.2,2.17-4.19a.21.21,0,0,1,.2-.12h.24a.22.22,0,0,1,.17.07.21.21,0,0,1,.06.16V107a.24.24,0,0,1-.06.17.25.25,0,0,1-.17.06h-.19a.25.25,0,0,1-.16-.06.24.24,0,0,1-.07-.17v-5l-1.9,3.65c-.09.12-.17.18-.26.18h-.08a.22.22,0,0,1-.2-.11l-2-3.73v5a.24.24,0,0,1-.06.17.25.25,0,0,1-.17.06h-.19a.25.25,0,0,1-.16-.06.24.24,0,0,1-.07-.17Z" fill="#fff"/><path d="M84.2,100.67a.19.19,0,0,1,.07-.11.28.28,0,0,1,.13,0h.12a.35.35,0,0,1,.23.06.56.56,0,0,1,.13.24l2.29,6.06,0,.06v0c0,.15-.06.23-.18.23h-.27a.2.2,0,0,1-.21-.15l-.65-1.78H83.13l-.65,1.78a.2.2,0,0,1-.21.15h-.2a.21.21,0,0,1-.17-.07.23.23,0,0,1-.07-.17.14.14,0,0,1,0-.09Zm1.43,4-1.12-3-1.15,3Z" fill="#fff"/><path d="M88,100.75a.19.19,0,0,1,.07-.16.2.2,0,0,1,.16-.07h.24a.15.15,0,0,1,.1,0,.12.12,0,0,1,.05,0l0,0,3.5,5.35v-5.23a.22.22,0,0,1,.22-.23h.19a.22.22,0,0,1,.17.07.21.21,0,0,1,.06.16V107a.24.24,0,0,1-.06.17.25.25,0,0,1-.17.06h-.24a.25.25,0,0,1-.16-.07l0,0-3.51-5.35V107a.24.24,0,0,1-.06.17.23.23,0,0,1-.16.06h-.18a.23.23,0,0,1-.16-.06A.21.21,0,0,1,88,107Z" fill="#fff"/><path d="M94,102.82a2.85,2.85,0,0,1,.26-1.23,2.12,2.12,0,0,1,.76-.84,1.89,1.89,0,0,1,1.09-.3h1a2.3,2.3,0,0,1,1.06.25,1.76,1.76,0,0,1,.72.71,2.17,2.17,0,0,1,.24,1,.25.25,0,0,1-.06.16.24.24,0,0,1-.16.07h-.2a.24.24,0,0,1-.22-.23,1.3,1.3,0,0,0-1.38-1.33h-1a1.41,1.41,0,0,0-.77.21,1.36,1.36,0,0,0-.5.6,2.2,2.2,0,0,0-.18.93v2.09a2.17,2.17,0,0,0,.17.91,1.49,1.49,0,0,0,.51.62h0a1.43,1.43,0,0,0,.73.21h1a1.36,1.36,0,0,0,1-.42,1.57,1.57,0,0,0,.39-1.12v-.76h-1.1l-.12,0a1.09,1.09,0,0,1-.16-.23.31.31,0,0,1,0-.17.19.19,0,0,1,0-.08l.09-.09a.27.27,0,0,1,.12,0h1.61a.21.21,0,0,1,.16.06.2.2,0,0,1,.07.16v1.16a2.41,2.41,0,0,1-.26,1.13,1.75,1.75,0,0,1-.74.76,2.18,2.18,0,0,1-1.09.27h-1A1.94,1.94,0,0,1,95,107a2,2,0,0,1-.74-.85,2.82,2.82,0,0,1-.26-1.21Z" fill="#fff"/><path d="M102.15,107.27a1.93,1.93,0,0,1-1-.25,1.85,1.85,0,0,1-.7-.74,2.39,2.39,0,0,1-.24-1.09v-4.44a.19.19,0,0,1,.07-.16.18.18,0,0,1,.15-.07h.2a.22.22,0,0,1,.17.07.21.21,0,0,1,.06.16v4.44a1.57,1.57,0,0,0,.35,1.06,1.21,1.21,0,0,0,.94.4h1a1.22,1.22,0,0,0,.94-.4,1.57,1.57,0,0,0,.35-1.06v-4.44a.22.22,0,0,1,.22-.23h.2a.22.22,0,0,1,.17.07.21.21,0,0,1,.06.16v4.44a2.39,2.39,0,0,1-.24,1.09,1.68,1.68,0,0,1-.69.73,1.88,1.88,0,0,1-1,.26Z" fill="#fff"/><path d="M106.4,100.75a.22.22,0,0,1,.22-.23h3.8a.2.2,0,0,1,.16.07.21.21,0,0,1,.06.16v.17a.23.23,0,0,1-.06.16.2.2,0,0,1-.16.07h-3.37v2.33h2.1a.24.24,0,0,1,.16.07.24.24,0,0,1,.07.18s0,.07,0,.09a1,1,0,0,1-.11.23.18.18,0,0,1-.15.06h-2v2.47h3.37a.21.21,0,0,1,.22.22V107a.24.24,0,0,1-.06.17.23.23,0,0,1-.16.06h-3.53a.46.46,0,0,1-.36-.14.52.52,0,0,1-.13-.38Z" fill="#fff"/><path d="M111.71,100.75a.22.22,0,0,1,.07-.16.21.21,0,0,1,.16-.07h2.84a1.57,1.57,0,0,1,1.12.4,1.33,1.33,0,0,1,.42,1v.74a1.45,1.45,0,0,1-.25.83,1.53,1.53,0,0,1-.68.57,2.13,2.13,0,0,1,.62,1.07l.49,1.74V107a.26.26,0,0,1-.07.16.21.21,0,0,1-.16.07h-.19a.2.2,0,0,1-.13,0,.18.18,0,0,1-.08-.11h0l-.52-1.79a1.49,1.49,0,0,0-.41-.72.89.89,0,0,0-.63-.26h-1.93V107a.21.21,0,0,1-.07.17.21.21,0,0,1-.16.06h-.2a.25.25,0,0,1-.16-.06.24.24,0,0,1-.07-.17Zm2.84,2.89a1.22,1.22,0,0,0,.82-.25.87.87,0,0,0,.3-.7V102a.75.75,0,0,0-.24-.59.92.92,0,0,0-.65-.21h-2.41v2.49Z" fill="#fff"/><path d="M119.36,100.67a.19.19,0,0,1,.07-.11.28.28,0,0,1,.13,0h.12a.33.33,0,0,1,.23.06.47.47,0,0,1,.13.24l2.29,6.06,0,.06v0c0,.15-.06.23-.17.23h-.28a.2.2,0,0,1-.21-.15l-.65-1.78h-2.75l-.65,1.78a.2.2,0,0,1-.21.15h-.2a.22.22,0,0,1-.17-.07A.28.28,0,0,1,117,107a.14.14,0,0,1,0-.09Zm1.44,4-1.13-3-1.14,3Z" fill="#fff"/><path d="M122.88,105.31a.21.21,0,0,1,.16-.07h.19a.24.24,0,0,1,.23.23,1.23,1.23,0,0,0,.33.87,1.15,1.15,0,0,0,.86.31h1a1.45,1.45,0,0,0,.87-.24.78.78,0,0,0,.32-.64v-.65a.74.74,0,0,0-.24-.55,1.19,1.19,0,0,0-.66-.29l-1.61-.27a2,2,0,0,1-1.08-.52,1.35,1.35,0,0,1-.39-1v-.57a1.36,1.36,0,0,1,.5-1.08,2,2,0,0,1,1.29-.41h1a1.69,1.69,0,0,1,1.22.45,1.6,1.6,0,0,1,.49,1.19.23.23,0,0,1-.06.16.21.21,0,0,1-.17.07H127a.18.18,0,0,1-.15-.07.2.2,0,0,1-.07-.16,1,1,0,0,0-.31-.74,1.07,1.07,0,0,0-.76-.27h-1a1.3,1.3,0,0,0-.83.23.74.74,0,0,0-.3.63v.57a.77.77,0,0,0,.22.57,1.12,1.12,0,0,0,.65.29l1.6.27a2.1,2.1,0,0,1,1.11.52,1.29,1.29,0,0,1,.39,1v.65a1.38,1.38,0,0,1-.23.78,1.43,1.43,0,0,1-.65.53,2.25,2.25,0,0,1-1,.19h-1a1.84,1.84,0,0,1-1.33-.48,1.8,1.8,0,0,1-.51-1.32A.19.19,0,0,1,122.88,105.31Z" fill="#fff"/><path d="M39.89,116.23a.2.2,0,0,1-.15-.06.2.2,0,0,1-.07-.16v-6.23a.19.19,0,0,1,.07-.16.21.21,0,0,1,.15-.07h.2a.26.26,0,0,1,.17.07.21.21,0,0,1,.06.16V116a.23.23,0,0,1-.06.16.25.25,0,0,1-.17.06Z" fill="#fff"/><path d="M41.75,109.78a.22.22,0,0,1,.07-.16.26.26,0,0,1,.16-.07h.25a.12.12,0,0,1,.09,0l.06,0s0,0,0,0L45.9,115v-5.23a.19.19,0,0,1,.07-.16.26.26,0,0,1,.16-.07h.19a.24.24,0,0,1,.23.23V116a.24.24,0,0,1-.07.16.21.21,0,0,1-.16.06h-.25a.27.27,0,0,1-.16-.07l0,0-3.5-5.35V116a.23.23,0,0,1-.06.16.25.25,0,0,1-.17.06H42a.25.25,0,0,1-.16-.06.24.24,0,0,1-.07-.16Z" fill="#fff"/><path d="M47.89,109.78a.19.19,0,0,1,.07-.16.24.24,0,0,1,.16-.07h2.33a2.59,2.59,0,0,1,1.2.27,2,2,0,0,1,.82.76,2.22,2.22,0,0,1,.28,1.12v2.2a2.37,2.37,0,0,1-.58,1.73,2.25,2.25,0,0,1-1.69.6h-2.1a.46.46,0,0,1-.35-.13.45.45,0,0,1-.14-.36Zm2.59,5.83q1.62,0,1.62-1.71v-2.2a1.45,1.45,0,0,0-.45-1.11,1.73,1.73,0,0,0-1.2-.41H48.54v5.43Z" fill="#fff"/><path d="M55.78,116.31a2,2,0,0,1-1-.26,1.9,1.9,0,0,1-.69-.74,2.28,2.28,0,0,1-.25-1.09v-4.44a.19.19,0,0,1,.07-.16.26.26,0,0,1,.16-.07h.2a.24.24,0,0,1,.23.23v4.44a1.57,1.57,0,0,0,.34,1.06,1.19,1.19,0,0,0,.94.4h1a1.16,1.16,0,0,0,.94-.4,1.57,1.57,0,0,0,.35-1.06v-4.44a.19.19,0,0,1,.07-.16.24.24,0,0,1,.16-.07h.2a.24.24,0,0,1,.16.07.21.21,0,0,1,.06.16v4.44a2.39,2.39,0,0,1-.24,1.09,1.72,1.72,0,0,1-.68.73,1.94,1.94,0,0,1-1,.27Z" fill="#fff"/><path d="M59.88,114.34a.21.21,0,0,1,.16-.07h.19a.24.24,0,0,1,.23.23,1.19,1.19,0,0,0,.33.87,1.16,1.16,0,0,0,.86.31h1a1.45,1.45,0,0,0,.87-.24.76.76,0,0,0,.32-.64v-.65a.74.74,0,0,0-.24-.55,1.19,1.19,0,0,0-.66-.29L61.36,113a2,2,0,0,1-1.08-.52,1.35,1.35,0,0,1-.39-1V111a1.36,1.36,0,0,1,.5-1.08,2,2,0,0,1,1.29-.41h1a1.69,1.69,0,0,1,1.22.45,1.6,1.6,0,0,1,.49,1.19.23.23,0,0,1-.06.16.2.2,0,0,1-.16.07H64a.18.18,0,0,1-.15-.07.2.2,0,0,1-.07-.16,1,1,0,0,0-1.07-1h-1a1.3,1.3,0,0,0-.83.23.74.74,0,0,0-.3.63v.57a.77.77,0,0,0,.22.57,1.15,1.15,0,0,0,.65.29l1.61.28a2,2,0,0,1,1.1.51,1.3,1.3,0,0,1,.39,1v.65a1.28,1.28,0,0,1-.23.78,1.43,1.43,0,0,1-.65.53,2.26,2.26,0,0,1-1,.2h-1a1.73,1.73,0,0,1-1.84-1.81A.22.22,0,0,1,59.88,114.34Z" fill="#fff"/><path d="M65,109.78a.22.22,0,0,1,.07-.16.26.26,0,0,1,.16-.07h4.23a.22.22,0,0,1,.16.07.19.19,0,0,1,.07.16V110a.2.2,0,0,1-.07.16.19.19,0,0,1-.16.07H67.66V116a.21.21,0,0,1-.22.22h-.2a.21.21,0,0,1-.16-.06A.2.2,0,0,1,67,116v-5.83H65.22a.21.21,0,0,1-.16-.07A.24.24,0,0,1,65,110Z" fill="#fff"/><path d="M70.57,109.78a.21.21,0,0,1,.06-.16.26.26,0,0,1,.16-.07h2.84a1.61,1.61,0,0,1,1.12.4,1.36,1.36,0,0,1,.43,1v.74a1.5,1.5,0,0,1-.25.83,1.61,1.61,0,0,1-.69.57,2.06,2.06,0,0,1,.62,1.07l.49,1.74V116a.26.26,0,0,1-.07.16.21.21,0,0,1-.16.07h-.19a.2.2,0,0,1-.13,0,.15.15,0,0,1-.08-.11h0l-.51-1.79a1.57,1.57,0,0,0-.41-.72.92.92,0,0,0-.64-.26H71.22V116a.23.23,0,0,1-.06.16.25.25,0,0,1-.17.06h-.2a.25.25,0,0,1-.16-.06.23.23,0,0,1-.06-.16Zm2.84,2.9a1.21,1.21,0,0,0,.81-.26.87.87,0,0,0,.3-.7V111a.79.79,0,0,0-.23-.59,1,1,0,0,0-.66-.21H71.22v2.5Z" fill="#fff"/><path d="M76.65,116.23a.2.2,0,0,1-.15-.06.2.2,0,0,1-.07-.16v-6.23a.19.19,0,0,1,.07-.16.21.21,0,0,1,.15-.07h.2a.24.24,0,0,1,.17.07.21.21,0,0,1,.06.16V116a.23.23,0,0,1-.06.16.24.24,0,0,1-.17.06Z" fill="#fff"/><path d="M80.39,109.7a.14.14,0,0,1,.07-.1.21.21,0,0,1,.13,0h.12a.33.33,0,0,1,.23.06.47.47,0,0,1,.13.24l2.29,6.07,0,0v0c0,.15-.06.23-.17.23h-.28a.19.19,0,0,1-.2-.15l-.66-1.78H79.32l-.65,1.78a.2.2,0,0,1-.21.15h-.2a.22.22,0,0,1-.17-.07A.25.25,0,0,1,78,116a.22.22,0,0,1,0-.09Zm1.44,4-1.13-3-1.14,3Z" fill="#fff"/><path d="M84.17,109.78a.19.19,0,0,1,.07-.16.22.22,0,0,1,.16-.07h.19a.24.24,0,0,1,.17.07.21.21,0,0,1,.06.16v5.83H88a.25.25,0,0,1,.17.06.23.23,0,0,1,.06.16V116a.23.23,0,0,1-.06.16.25.25,0,0,1-.17.06H84.66a.45.45,0,0,1-.36-.14.51.51,0,0,1-.13-.37Z" fill="#fff"/><path d="M89.12,109.78a.22.22,0,0,1,.07-.16.26.26,0,0,1,.16-.07h3.79a.26.26,0,0,1,.17.07.21.21,0,0,1,.06.16V110a.23.23,0,0,1-.06.16.22.22,0,0,1-.17.07H89.78v2.33h2.09a.21.21,0,0,1,.17.08.21.21,0,0,1,.07.17.2.2,0,0,1,0,.09,1,1,0,0,1-.11.23.2.2,0,0,1-.15.06h-2v2.47h3.36a.25.25,0,0,1,.17.06.23.23,0,0,1,.06.16V116a.23.23,0,0,1-.06.16.25.25,0,0,1-.17.06H89.61a.45.45,0,0,1-.36-.14.55.55,0,0,1-.13-.37Z" fill="#fff"/><path d="M94.29,114.34a.21.21,0,0,1,.16-.07h.19a.24.24,0,0,1,.23.23,1.19,1.19,0,0,0,.33.87,1.17,1.17,0,0,0,.87.31h1a1.45,1.45,0,0,0,.87-.24.76.76,0,0,0,.32-.64v-.65a.74.74,0,0,0-.24-.55,1.19,1.19,0,0,0-.66-.29l-1.6-.27a2.07,2.07,0,0,1-1.09-.52,1.35,1.35,0,0,1-.39-1V111a1.36,1.36,0,0,1,.5-1.08,2,2,0,0,1,1.29-.41h1a1.69,1.69,0,0,1,1.22.45,1.6,1.6,0,0,1,.49,1.19.23.23,0,0,1-.06.16.2.2,0,0,1-.16.07h-.19a.24.24,0,0,1-.23-.23,1,1,0,0,0-1.07-1h-1a1.3,1.3,0,0,0-.83.23.74.74,0,0,0-.3.63v.57a.74.74,0,0,0,.23.57,1.09,1.09,0,0,0,.64.29l1.61.28a2,2,0,0,1,1.1.51,1.3,1.3,0,0,1,.39,1v.65a1.28,1.28,0,0,1-.23.78,1.43,1.43,0,0,1-.65.53,2.26,2.26,0,0,1-1,.2h-1a1.83,1.83,0,0,1-1.33-.49,1.81,1.81,0,0,1-.52-1.32A.22.22,0,0,1,94.29,114.34Z" fill="#fff"/><path d="M18.14,96.58a7,7,0,0,1-3.9-1.13,7.47,7.47,0,0,1-2.7-3.11A10.8,10.8,0,0,1,10.63,88v-5.5a10,10,0,0,1,.93-4.38A7.32,7.32,0,0,1,14.29,75a7.13,7.13,0,0,1,4-1.12h3.19a7.78,7.78,0,0,1,3.76.91,6.62,6.62,0,0,1,2.65,2.57,10.62,10.62,0,0,1,1,4.47l-3.65,0s-.38-2.74-1.05-3.41a3.64,3.64,0,0,0-2.69-1H18.26a3.56,3.56,0,0,0-2,.57,3.9,3.9,0,0,0-1.4,1.68,6.24,6.24,0,0,0-.54,2.77V88a6.83,6.83,0,0,0,.52,2.74,3.9,3.9,0,0,0,1.4,1.73,3.26,3.26,0,0,0,1.91.55h3.25a3.54,3.54,0,0,0,2.74-1.09c.72-.75,1.12-3.79,1.12-3.79l3.65,0a20.08,20.08,0,0,1-1,4.67,7,7,0,0,1-2.64,2.77,7.57,7.57,0,0,1-3.91,1Zm24.38,0a7.9,7.9,0,0,0,4.13-1.08,7.24,7.24,0,0,0,2.8-3,9.45,9.45,0,0,0,1-4.33V82.29a9.42,9.42,0,0,0-1-4.3,7.37,7.37,0,0,0-2.82-3,7.85,7.85,0,0,0-4.1-1.08H39.48a8,8,0,0,0-4.1,1,7.25,7.25,0,0,0-2.81,3,9.52,9.52,0,0,0-1,4.34v5.86a9.39,9.39,0,0,0,1,4.3,7.45,7.45,0,0,0,2.8,3,7.85,7.85,0,0,0,4.09,1.08Zm0-19.13a4.25,4.25,0,0,1,2.22.54,3.77,3.77,0,0,1,1.43,1.64,6.16,6.16,0,0,1,.54,2.66v5.86a6.19,6.19,0,0,1-.56,2.62,3.94,3.94,0,0,1-1.47,1.65,4.11,4.11,0,0,1-2.19.57H39.45a3.79,3.79,0,0,1-3-1.26,5.16,5.16,0,0,1-1.16-3.58V82.29a6.26,6.26,0,0,1,.56-2.65A3.84,3.84,0,0,1,37.29,78a4,4,0,0,1,2.19-.56ZM74.86,96.34V75.61a1.45,1.45,0,0,0-1.51-1.51h-.81a1.51,1.51,0,0,0-1.34.81L64.66,86.1,57.93,74.87l0-.06a1.49,1.49,0,0,0-1.29-.71h-.82a1.51,1.51,0,0,0-1,.39,1.46,1.46,0,0,0-.49,1.12V96.34h3.66V82.63L63.19,91l0,0a1.49,1.49,0,0,0,1.29.71h.24a1.74,1.74,0,0,0,1.51-1l0,0,4.92-8V96.34Zm8.44,0V74.1H79.62V96.34Zm20.68,0a1.47,1.47,0,0,0,1.51-1.51V74.1h-3.65V89L91.64,74.85l-.07-.16-.12-.11a1.5,1.5,0,0,0-1.07-.48h-.81a1.55,1.55,0,0,0-1,.39,1.49,1.49,0,0,0-.48,1.12V96.34h3.62V81.42L101.91,95.6l.07.15.12.11a1.49,1.49,0,0,0,1.06.48Zm15.34,0a8.23,8.23,0,0,0,6.14-2.22,8.62,8.62,0,0,0,2.15-6.27V82a8.16,8.16,0,0,0-1-4.12,7.31,7.31,0,0,0-3-2.8,9.5,9.5,0,0,0-4.32-1h-7.75a1.55,1.55,0,0,0-1,.39,1.49,1.49,0,0,0-.48,1.12V94a2.35,2.35,0,0,0,.67,1.71,2.4,2.4,0,0,0,1.72.67Zm-5.7-3.59V77.69h5.58a4.91,4.91,0,0,1,3.48,1.18A4,4,0,0,1,123.93,82v5.86a5.31,5.31,0,0,1-1.14,3.72,4.57,4.57,0,0,1-3.47,1.18Z" fill="#fff"/><path d="M69.77,10.25V25.07A14.82,14.82,0,1,0,84.59,39.89H99.4A29.64,29.64,0,1,1,69.77,10.25Z" fill="#006eb7"/><path d="M96,26.09l1.3-1.32-5.82-5.05-.1-.11L78.82,32.16l5.3,6,.33-.34a15.31,15.31,0,0,1,.14,2H99.4A29.4,29.4,0,0,0,96,26.09Z" fill="url(#radial-gradient)"/><path d="M76.66,31.68,90.33,18l-5.67-5.68-1.25,1.25a29.39,29.39,0,0,0-13.64-3.33V25.07h0a14.75,14.75,0,0,1,2,.14L71,26Z" fill="url(#radial-gradient-2)"/><path d="M69.77,10.25V25.07A14.81,14.81,0,0,0,59.29,50.36L48.81,60.84a29.63,29.63,0,0,1,21-50.59Z" fill="#e6332a"/><rect x="73.08" y="23.05" width="5.05" height="8.02" transform="translate(3.01 61.38) rotate(-45)" fill="url(#linear-gradient)"/><rect x="76.04" y="18" width="9.24" height="8.02" transform="translate(8.06 63.48) rotate(-45)" fill="url(#linear-gradient-2)"/><rect x="83.18" y="12.95" width="5.05" height="8.02" transform="translate(13.1 65.56) rotate(-45)" fill="url(#linear-gradient-3)"/><path d="M96.09,26.29,84.46,37.93a.22.22,0,0,1,0-.08l-.33.34-.42-.48L96.94,24.47l.35.3L96,26.09A1.86,1.86,0,0,1,96.09,26.29ZM79.62,33.06l.45.52L92.79,20.87l-.52-.46ZM93.73,21.68l-.53-.46L80.43,34l.46.52Zm.93.81L94.14,22,81.25,34.92l.45.52Zm1.87,1.62L96,23.66,82.88,36.78l.46.52Zm-.94-.81-.52-.45-13,13,.46.52Z" fill="#696a68"/><rect x="75.96" y="26.23" width="19.59" height="0.69" transform="translate(6.3 68.38) rotate(-44.97)" fill="url(#linear-gradient-4)"/><rect x="76.83" y="27.1" width="19.59" height="0.69" transform="translate(5.94 69.25) rotate(-44.97)" fill="url(#linear-gradient-5)"/><rect x="77.7" y="27.98" width="19.59" height="0.69" transform="translate(5.58 70.12) rotate(-44.97)" fill="url(#linear-gradient-6)"/><rect x="78.58" y="28.85" width="19.59" height="0.69" transform="translate(5.22 71) rotate(-44.97)" fill="url(#linear-gradient-7)"/><rect x="79.45" y="29.72" width="19.59" height="0.69" transform="translate(4.86 71.87) rotate(-44.97)" fill="url(#linear-gradient-8)"/><rect x="80.32" y="30.59" width="19.59" height="0.69" transform="translate(4.5 72.74) rotate(-44.97)" fill="url(#linear-gradient-9)"/><path d="M85.35,13.05l-.7-.71L83,14A4,4,0,0,1,85.35,13.05Z" fill="#696a68"/><path d="M81.94,16.78A6.67,6.67,0,0,1,83,14L80.39,16.6h0l-5.15,5.15h0L71,26l.71.7h0a4.39,4.39,0,0,1,1-2.44,5.1,5.1,0,0,1,2.54-1.13,13.14,13.14,0,0,1,2.79-4.2A8,8,0,0,1,81.94,16.78Z" fill="#696a68"/><path d="M75.94,31l.7.7,1.7-1.7A3.41,3.41,0,0,1,75.94,31Z" fill="#cdcdcd"/><path d="M79.35,27.23s.14.81-1,2.73L80.9,27.4h0l5.15-5.14h0L90.31,18l-.71-.7h0a2.53,2.53,0,0,1-.9,2.31A4.38,4.38,0,0,1,86,20.87a9.7,9.7,0,0,1-2.68,3.89A12,12,0,0,1,79.35,27.23Z" fill="#cdcdcd"/><path d="M74.55,22.44a8,8,0,0,0-4.78-1.22c.06,2.2,0,3.85,0,3.85l2,.14,2.77-2.77" fill="#696a68"/><path d="M87.29,35.1a8.15,8.15,0,0,1,1.21,4.79c-2.2-.06-3.85,0-3.85,0l-.13-2,2.77-2.77" fill="#696a68"/></svg>